<?xml version="1.0" encoding="UTF-8" standalone="no"?><!DOCTYPE svg PUBLIC "-//W3C//DTD SVG 1.1//EN" "http://www.w3.org/Graphics/SVG/1.1/DTD/svg11.dtd"><svg width="100%" height="100%" viewBox="0 0 180 180" version="1.1" xmlns="http://www.w3.org/2000/svg" xmlns:xlink="http://www.w3.org/1999/xlink" xml:space="preserve" xmlns:serif="http://www.serif.com/" style="fill-rule:evenodd;clip-rule:evenodd;stroke-linecap:round;stroke-linejoin:round;stroke-miterlimit:1.5;"><rect x="-3.068" y="-9.462" width="187.517" height="193.924" style="fill:#1e293b;stroke:#000;stroke-width:1px;"/><path d="M125.253,165.93c6.493,0 10.347,-3.807 10.347,-10.047l0,-2.86l-10.158,0l0,4.108l4.566,-0l-0.016,0.284c-0.189,2.291 -1.99,3.713 -4.613,3.713c-3.333,-0 -5.481,-2.591 -5.481,-7.109l-0,-0.016c-0,-4.423 1.943,-6.888 5.229,-6.888c2.227,0 3.854,1.09 4.454,2.939l0.048,0.157l5.734,0l-0.031,-0.189c-0.601,-4.423 -4.629,-7.709 -10.221,-7.709c-6.872,-0 -11.122,4.36 -11.122,11.753l0,0.016c0,7.504 4.234,11.848 11.264,11.848Zm-35.325,-0.047c1.169,-0 2.007,-0.095 2.623,-0.206l-0,-3.981c-0.316,0.048 -0.601,0.079 -1.043,0.079c-1.374,0 -2.038,-0.553 -2.038,-2.038l0,-7.314l3.081,0l-0,-4.107l-3.081,-0l0,-3.965l-5.608,-0l0,3.965l-2.338,-0l-0,4.107l2.338,0l0,8.073c0,3.886 1.896,5.387 6.066,5.387Zm47.577,-0.364l5.782,0l-0,-13.301l0.11,-0l9.163,13.301l4.866,0l-0,-22.796l-5.782,0l-0,13.16l-0.111,-0l-9.115,-13.16l-4.913,0l-0,22.796Zm-42.576,0l5.797,0l0,-6.682l3.918,-0c5.087,-0 8.373,-3.128 8.373,-8.009l-0,-0.032c-0,-4.881 -3.286,-8.073 -8.373,-8.073l-9.715,0l-0,22.796Zm-72.355,0l5.798,0l0,-6.682l3.918,-0c5.087,-0 8.373,-3.128 8.373,-8.009l-0,-0.032c-0,-4.881 -3.286,-8.073 -8.373,-8.073l-9.716,0l0,22.796Zm40.727,0l5.608,0l0,-9.763c0,-1.911 1.106,-3.238 2.891,-3.238c1.833,-0 2.765,1.153 2.765,3.128l-0,9.873l5.592,0l0,-11.074c0,-4.076 -2.133,-6.493 -5.908,-6.493c-2.607,0 -4.376,1.233 -5.229,3.397l-0.111,-0l0,-3.033l-5.608,-0l0,17.203Zm-8.002,0l5.593,0l-0,-17.203l-5.593,-0l0,17.203Zm-12.764,0l5.608,0l0,-9.131c0,-2.448 1.28,-3.744 3.634,-3.744c0.663,0 1.311,0.127 1.785,0.316l-0,-4.786c-0.427,-0.143 -0.917,-0.222 -1.454,-0.222c-2.022,0 -3.38,1.233 -3.854,3.413l-0.111,-0l0,-3.049l-5.608,-0l-0,17.203Zm60.719,-18.356c2.448,-0 3.902,1.263 3.902,3.633l-0,0.032c-0,2.369 -1.454,3.649 -3.902,3.649l-2.528,-0l0,-7.314l2.528,-0Zm-72.354,-0c2.448,-0 3.902,1.263 3.902,3.633l-0,0.032c-0,2.369 -1.454,3.649 -3.902,3.649l-2.528,-0l0,-7.314l2.528,-0Zm27.196,-0.696c1.627,0 2.859,-1.263 2.859,-2.764c-0,-1.501 -1.232,-2.749 -2.859,-2.749c-1.612,0 -2.86,1.248 -2.86,2.749c0,1.501 1.248,2.764 2.86,2.764Zm29.363,-111.801c-2.299,0.494 -4.228,1.618 -5.761,2.936c-2.522,2.168 -3.911,4.824 -4.175,5.357c-1.702,2.984 -1.533,7.307 -0.198,11.897c0.162,0.556 0.339,1.116 0.531,1.679c-6.823,-5.32 -14.592,-8.437 -21.778,-8.784c-9.418,-0.456 -17.921,3.653 -22.481,13.522c-5.632,11.301 -1.039,20.762 5.098,27.371c4.254,4.581 9.226,7.727 11.603,9.093l-0.001,23.888c-0.003,0.382 0.081,0.77 0.259,1.134l0.095,0.177c0.214,0.361 0.504,0.651 0.839,0.86c19.349,12.3 54.499,12.3 73.848,0c0.335,-0.209 0.625,-0.499 0.838,-0.86l0.096,-0.177c0.178,-0.364 0.261,-0.752 0.258,-1.134l0,-22.186c3.284,-1.851 11.6,-6.984 17.056,-14.259c4.937,-6.583 7.576,-14.824 3.005,-23.966c-0.034,-0.066 -0.07,-0.132 -0.109,-0.195c-10.009,-16.265 -29.482,-16.571 -43.744,-6.38c1.276,-4.505 1.415,-8.734 -0.262,-11.684c-0.247,-0.501 -1.638,-3.173 -4.174,-5.353c-1.533,-1.318 -3.461,-2.443 -5.761,-2.936l0,-8.738l5.929,0c1.403,0 2.541,-1.138 2.541,-2.541c0,-1.402 -1.138,-2.541 -2.541,-2.541l-5.929,0l0,-4.235c0,-1.402 -1.139,-2.541 -2.541,-2.541c-1.402,-0 -2.541,1.139 -2.541,2.541l-0,4.235l-5.929,0c-1.403,0 -2.541,1.139 -2.541,2.541c-0,1.403 1.138,2.541 2.541,2.541l5.929,0l-0,8.738Zm31.004,87.155c-8.514,-3.54 -19.282,-5.31 -30.051,-5.31c-10.768,0 -21.535,1.77 -30.048,5.31c16.993,8.308 43.106,8.308 60.099,-0Zm2.985,-10.497c-17.791,-8.895 -48.277,-8.895 -66.068,-0l-0,6.254c18.489,-8.067 47.578,-8.067 66.068,0l-0,-6.254Zm-0,-11.859c-17.791,-8.894 -48.277,-8.894 -66.068,0l-0,6.255c18.489,-8.067 47.578,-8.067 66.068,-0l-0,-6.255Zm-33.904,-11.65c0.002,0.015 0.022,-11.341 0.022,-11.341c-6.756,-14.024 -20.043,-23.081 -31.733,-23.647c-7.383,-0.357 -14.056,2.849 -17.628,10.588c-0.011,0.025 -0.022,0.048 -0.034,0.072c-4.495,8.989 -0.621,16.455 4.248,21.698c5.182,5.581 11.893,8.968 12.04,9.089c9.147,-4.207 21.083,-6.36 33.085,-6.459Zm5.127,-0c-0.002,0.015 -0.022,-11.341 -0.022,-11.341c6.756,-14.024 20.043,-23.081 31.733,-23.647c7.382,-0.357 14.056,2.849 17.628,10.588c0.011,0.025 0.022,0.048 0.034,0.072c4.495,8.989 0.621,16.455 -4.248,21.698c-5.182,5.581 -11.893,8.968 -12.04,9.089c-9.147,-4.207 -21.083,-6.36 -33.085,-6.459Zm-2.788,-18.025c1.081,-2.186 6.901,-12.686 7.862,-15.994c1.005,-3.456 1.452,-6.709 0.147,-8.953l-0.087,-0.166c0,0 -1.035,-2.213 -3.096,-3.985c-1.185,-1.019 -2.734,-1.924 -4.709,-1.924c-1.974,0 -3.523,0.905 -4.708,1.924c-2.061,1.772 -3.097,3.985 -3.097,3.985l-0.086,0.166c-1.305,2.244 -0.858,5.497 0.147,8.953c1.695,5.831 5.264,12.168 7.627,15.994Z" style="fill:#fff;"/></svg>